PathFileType	4	(X/Y/Z)	/Users/visionmauri/4_3_2_f_1_Sports2D/4_3_2_f_1_Sports2D_px_person00.trc
DataRate	CameraRate	NumFrames	NumMarkers	Units	OrigDataRate	OrigDataStartFrame	OrigNumFrames
30.0	30.0	6	22	m	30.0	225	360
Frame#	Time	Hip			RHip			RKnee			RAnkle			RBigToe			RSmallToe			RHeel			LHip			LKnee			LAnkle			LBigToe			LSmallToe			LHeel			Neck			Head			Nose			RShoulder			RElbow			RWrist			LShoulder			LElbow			LWrist			
		X1	Y1	Z1	X2	Y2	Z2	X3	Y3	Z3	X4	Y4	Z4	X5	Y5	Z5	X6	Y6	Z6	X7	Y7	Z7	X8	Y8	Z8	X9	Y9	Z9	X10	Y10	Z10	X11	Y11	Z11	X12	Y12	Z12	X13	Y13	Z13	X14	Y14	Z14	X15	Y15	Z15	X16	Y16	Z16	X17	Y17	Z17	X18	Y18	Z18	X19	Y19	Z19	X20	Y20	Z20	X21	Y21	Z21	X22	Y22	Z22
225	7.520891364902507	588.6888684148684	838.4930676775115	0.0	527.3622363434247	838.8461856419667	0.0	487.78841863391614	1022.3302898038082	0.0	458.96936424876935	1241.8797784756966	0.0	446.69548585174493	1336.68014120791	0.0	416.6694376158908	1322.2847611916195	0.0	480.7135685370374	1275.646576447142	0.0	650.6732801125906	846.3035642126167	0.0	644.2390407621099	1079.0485411816214	0.0	633.7572269767043	1318.0087201342612	0.0	677.6141146346829	1398.4374766068483	0.0	699.0471243528717	1389.6344121691025	0.0	611.2665383220278	1351.2969672308077	0.0	599.807051933669	523.1092229033788	0.0	588.4991778323913	385.4953946276362	0.0	581.1974897241294	500.21771602803926	0.0	497.3921159952883	550.8310618172579	0.0	420.34701941589276	693.4048369055213	0.0	354.3057184740681	814.5448233632412	0.0	706.9356697251242	545.8296238688451	0.0	773.4593408465375	689.2045121001094	0.0	781.9393955743109	817.4947590134219	0.0
226	7.554317548746519	590.6279291627948	838.9919323270605	0.0	529.20134360083	840.8833954310211	0.0	488.55012330785644	1023.5574457126498	0.0	459.3417921341624	1244.1082274947853	0.0	446.76802585846787	1341.2481903008309	0.0	415.81961243126835	1326.6433051507383	0.0	481.1648429241471	1277.4639224716993	0.0	652.3431745752071	848.3092535551925	0.0	645.7012200173442	1078.5733980137818	0.0	633.9305060104069	1317.572585793003	0.0	677.5039456951872	1398.703616671173	0.0	699.1629780384569	1389.5776572773996	0.0	611.510226098761	1351.9925055076944	0.0	605.2893808432045	520.2739130048478	0.0	595.6618623622622	385.5742371301593	0.0	584.7129832863586	500.0252021079036	0.0	503.39226830364646	547.7940550987095	0.0	423.38201028218873	692.2013927193894	0.0	354.84852069796733	813.6043645896133	0.0	712.7569317201178	547.2823713270793	0.0	779.4204831381325	692.942892919476	0.0	786.2914145388088	818.0886911522688	0.0
227	7.587743732590529	592.8198060782381	837.0623736089553	0.0	531.3822456091715	837.8126358661676	0.0	489.8864028377345	1022.1182059117435	0.0	460.6038928189295	1245.514613019196	0.0	447.0255247593396	1347.9553155676783	0.0	415.0122856884935	1334.0722451880736	0.0	481.2993432342514	1279.7686248164339	0.0	654.4615688955631	848.3217584070795	0.0	647.3643328777508	1077.5605893023292	0.0	634.198148039678	1317.3866561665302	0.0	676.9164942030836	1398.8114573998078	0.0	699.3219108603257	1389.7585351751031	0.0	611.201431138364	1352.7207236950258	0.0	609.2003954707066	519.4652133523184	0.0	602.847774845193	385.3032478649755	0.0	588.7262444854565	500.25606838147576	0.0	508.31489976266073	544.7722588706733	0.0	427.0161575182054	689.972981052158	0.0	356.1738347365382	812.8705297587178	0.0	716.438872782947	548.1580241398402	0.0	784.7989972260203	695.2603206664651	0.0	789.9970067519515	817.7906877574172	0.0
228	7.621169916434541	594.6936589070912	833.70739543307	0.0	533.8142410499833	832.3569392574078	0.0	491.8151094331817	1020.5335223796501	0.0	462.87871970456877	1249.1595588437783	0.0	446.9716669334508	1356.0214254910763	0.0	414.6039022423153	1342.9722487913505	0.0	482.36017618767073	1286.992081227882	0.0	656.5393975320486	846.2163506145785	0.0	648.8789410490137	1076.9139263766297	0.0	634.5041969761139	1317.0826250812788	0.0	675.5967677185527	1398.6407638892033	0.0	699.4357623903996	1389.7573133933315	0.0	611.3833152723362	1353.3716437094172	0.0	612.4275936546406	519.5633422430234	0.0	608.7242698973005	384.2349579313887	0.0	592.7128719942177	500.02496276215226	0.0	512.546635519007	541.7122022235656	0.0	430.3832530920631	687.0354901235622	0.0	358.4022828343824	811.5976439221783	0.0	719.0266280758724	547.7246049846245	0.0	789.8464446121195	697.695544490434	0.0	792.8643707893507	818.3887677253163	0.0
229	7.654596100278552	595.7636763035388	831.3685001610163	0.0	535.8857553901474	830.2402150098782	0.0	494.1826263782489	1021.6665141970985	0.0	465.2709709418686	1260.244146677835	0.0	446.18363268310816	1364.582688028655	0.0	414.45796176024504	1351.8956740487276	0.0	484.2753861534999	1301.6222715479073	0.0	657.9526284333109	845.0362228483391	0.0	649.6075362315352	1076.76640729338	0.0	634.69632807526	1316.502419783082	0.0	674.2229202970042	1398.4532979084693	0.0	699.573942854272	1389.51720435173	0.0	612.1326280228782	1354.1316532712974	0.0	616.4907112912791	518.3861383604149	0.0	612.2746021413411	383.77787474297804	0.0	594.9386223497781	499.66333171115156	0.0	516.5791324634619	539.1799514512246	0.0	432.8620515557082	685.7139815742038	0.0	360.2718569779924	810.4896595214702	0.0	722.7384445595052	546.6616463883605	0.0	794.5664348104841	701.2641466490865	0.0	795.6608358601482	819.6999016213641	0.0
230	7.688022284122563	596.8699220425017	831.0642138863743	0.0	537.5181900686449	831.8169833429376	0.0	496.4072696768406	1023.703072603324	0.0	466.1535682195465	1280.3454293847303	0.0	444.9314549786994	1373.9119136519428	0.0	414.0859298811046	1363.0326679145107	0.0	485.59123172196405	1318.6107214537749	0.0	659.2268770055758	846.0876585364928	0.0	649.3855900724907	1076.825758961577	0.0	634.9343246257067	1316.4700636180423	0.0	673.332769757597	1398.4861840176134	0.0	699.8010401678799	1389.2564530474663	0.0	612.736541883912	1354.8227667776164	0.0	621.4263182348254	516.637938305244	0.0	614.5919037833419	384.04054294753274	0.0	595.1400067424383	499.61504534409244	0.0	520.1067701263582	537.3419872777316	0.0	435.3123583299038	685.8036281352228	0.0	360.93727606419696	810.1725066281276	0.0	727.9643666795246	546.3293483132378	0.0	798.1045486396732	704.3956162362383	0.0	798.496411005681	820.238022454742	0.0
